<?xml version="1.0" encoding="utf-8"?><!-- Uploaded to: SVG Repo, www.svgrepo.com, Generator: SVG Repo Mixer Tools -->
<svg fill="#000000" width="800px" height="800px" viewBox="0 0 24 24" id="repost-2" data-name="Flat Color" xmlns="http://www.w3.org/2000/svg" class="icon flat-color"><path id="secondary" d="M20.71,11.29l-2-2a1,1,0,0,0-1.42,0l-2,2a1,1,0,0,0,1.42,1.42l.29-.3V20H7V18a1,1,0,0,0-2,0v2a2,2,0,0,0,2,2H17a2,2,0,0,0,2-2V12.41l.29.3a1,1,0,0,0,1.42,0A1,1,0,0,0,20.71,11.29Z" style="fill: rgb(44, 169, 188);"></path><path id="primary" d="M17,2H7A2,2,0,0,0,5,4v7.59l-.29-.3a1,1,0,0,0-1.42,1.42l2,2a1,1,0,0,0,1.42,0l2-2a1,1,0,0,0-1.42-1.42l-.29.3V4H17V6a1,1,0,0,0,2,0V4A2,2,0,0,0,17,2Z" style="fill: rgb(0, 0, 0);"></path></svg>